<svg width="650" height="550" viewBox="0 0 650 550" fill="none" xmlns="http://www.w3.org/2000/svg">
<path d="M518.127 369.852C574.093 286.675 547.316 185.692 483.762 141.441C277.924 5.30917 68.2229 96.4557 107.792 262.801C149.307 377.416 223.651 295.29 305.513 419.934C352.246 490.812 457.876 459.078 518.127 369.852Z" fill="url(#paint0_linear)"/>
<path d="M323.638 418.688C248.771 281.071 168.223 371.634 134.937 250.209C107.589 73.9979 327.129 -18.9155 525.325 127.817C586.33 175.16 606.018 282.373 542.803 368.999C474.942 462.213 365.387 494.024 323.638 418.688Z" fill="url(#paint1_linear)"/>
<mask id="homeHeroSVG1" masktype="alpha" maskUnits="userSpaceOnUse" x="355" y="365" width="172" height="41">
<path fill-rule="evenodd" clip-rule="evenodd" d="M355.768 365.23H526.141V405.613H355.768V365.23Z" fill="white"/>
</mask>
<g mask="url(#homeHeroSVG1)">
<path fill-rule="evenodd" clip-rule="evenodd" d="M321.889 390.044C330.419 384.935 340.169 381.043 349.918 377.88C358.937 375.204 368.443 373.258 378.192 372.772C383.798 372.528 391.841 372.042 396.716 375.204C402.079 378.854 398.91 385.665 405.735 388.584C412.072 391.26 420.603 390.774 427.427 390.531C434.739 390.044 441.808 388.828 448.633 386.638C460.819 382.746 471.788 376.178 483.975 372.042C498.355 367.176 516.879 364.501 532.235 367.906C554.902 373.015 554.902 393.45 549.784 408.776C549.296 409.992 549.053 412.182 548.078 413.398C547.347 414.128 545.64 414.858 544.665 415.344C535.891 420.21 526.873 425.075 518.098 429.941C513.467 432.617 508.836 435.049 503.961 437.725C501.524 439.185 498.843 441.131 495.918 442.104C493.724 442.834 490.312 442.348 488.118 442.348C445.464 441.861 402.566 441.375 359.912 440.888C351.381 440.888 342.85 440.645 334.563 440.645C332.126 440.645 329.688 440.645 327.251 440.645C326.763 440.645 324.813 440.888 324.57 440.645C323.839 439.915 324.326 435.779 324.326 434.806C324.082 430.427 323.838 426.048 323.838 421.913C323.351 412.668 323.107 403.667 322.62 394.423C322.62 392.72 322.376 391.017 322.376 389.314C321.889 389.071 321.889 389.558 321.889 390.044C322.62 407.073 323.351 424.345 324.326 441.375C355.037 441.618 385.748 442.104 416.459 442.348C436.202 442.591 455.701 442.834 475.444 443.077C481.05 443.077 486.656 443.321 492.262 443.321C495.187 443.321 495.674 443.321 498.111 441.861C513.711 433.347 529.066 424.832 544.665 416.317C547.834 414.615 548.322 414.128 549.297 410.965C551.246 405.37 552.709 399.775 552.709 393.936C552.953 388.584 552.465 382.989 549.54 377.88C545.153 370.096 535.891 366.447 525.898 365.474C511.273 364.014 495.674 366.203 482.025 371.069C471.056 374.961 461.063 380.8 450.095 384.692C437.908 388.828 422.553 391.26 409.634 388.341C406.222 387.611 403.053 386.152 401.591 383.476C400.372 381.286 400.616 379.097 399.397 376.907C398.179 374.231 395.254 372.772 391.841 372.042C384.286 370.582 375.755 371.312 368.443 372.528C354.306 374.475 340.413 379.34 328.226 385.422C326.032 386.395 324.082 387.611 322.132 388.828C321.645 388.828 322.132 390.044 321.889 390.044Z" fill="white"/>
</g>
<mask id="homeHeroSVG2" masktype="alpha" maskUnits="userSpaceOnUse" x="355" y="354" width="172" height="52">
<path fill-rule="evenodd" clip-rule="evenodd" d="M355.768 354.769H526.141V405.613H355.768V354.769Z" fill="white"/>
</mask>
<g mask="url(#homeHeroSVG2)">
<path fill-rule="evenodd" clip-rule="evenodd" d="M321.889 379.583C330.419 374.475 340.169 370.582 349.918 367.42C358.937 364.744 368.443 362.797 378.192 362.311C383.798 362.068 391.841 361.581 396.716 364.744C402.079 368.393 398.91 375.204 405.735 378.124C412.072 380.8 420.603 380.313 427.427 380.07C434.739 379.583 441.808 378.367 448.633 376.177C460.819 372.285 471.788 365.717 483.975 361.581C498.355 356.716 516.879 354.04 532.235 357.445C554.902 362.554 554.902 382.989 549.784 398.315C549.296 399.532 549.053 401.721 548.078 402.937C547.347 403.667 545.64 404.397 544.665 404.884C535.891 409.749 526.873 414.615 518.098 419.48C513.467 422.156 508.836 424.589 503.961 427.265C501.524 428.724 498.843 430.67 495.918 431.644C493.724 432.373 490.312 431.887 488.118 431.887C445.464 431.4 402.566 430.914 359.912 430.427C351.381 430.427 342.85 430.184 334.563 430.184C332.126 430.184 329.688 430.184 327.251 430.184C326.763 430.184 324.813 430.427 324.57 430.184C323.839 429.454 324.326 425.318 324.326 424.345C324.082 419.966 323.838 415.588 323.838 411.452C323.351 402.208 323.107 393.207 322.62 383.962C322.62 382.259 322.376 380.556 322.376 378.853C321.889 378.61 321.889 379.34 321.889 379.583C322.62 396.612 323.351 413.885 324.326 430.914C355.037 431.157 385.748 431.644 416.459 431.887C436.202 432.13 455.701 432.373 475.444 432.617C481.05 432.617 486.656 432.86 492.262 432.86C495.187 432.86 495.674 432.86 498.111 431.4C513.711 422.886 529.066 414.371 544.665 405.857C547.834 404.154 548.322 403.667 549.297 400.505C551.246 394.909 552.709 389.314 552.709 383.476C552.953 378.124 552.465 372.528 549.54 367.42C545.153 359.635 535.891 355.986 525.898 355.013C511.273 353.553 495.674 355.743 482.025 360.608C471.056 364.5 461.063 370.339 450.095 374.231C437.908 378.367 422.553 380.8 409.634 377.88C406.222 377.151 403.053 375.691 401.591 373.015C400.372 370.825 400.616 368.636 399.397 366.447C398.179 363.771 395.254 362.311 391.841 361.581C384.286 360.121 375.755 360.851 368.443 362.068C354.306 364.014 340.413 368.879 328.226 374.961C326.032 375.934 324.082 377.151 322.132 378.367C321.645 378.61 322.132 379.583 321.889 379.583Z" fill="#00E4FF"/>
</g>
<mask id="homeHeroSVG3" masktype="alpha" maskUnits="userSpaceOnUse" x="355" y="344" width="172" height="62">
<path fill-rule="evenodd" clip-rule="evenodd" d="M355.768 344.309H526.141V405.614H355.768V344.309Z" fill="white"/>
</mask>
<g mask="url(#homeHeroSVG3)">
<path fill-rule="evenodd" clip-rule="evenodd" d="M324.326 419.48C323.595 402.208 322.863 385.179 321.889 367.906C321.889 368.393 321.889 368.636 321.889 369.123C328.713 364.987 336.513 361.581 344.312 358.905C358.206 354.04 375.024 350.147 390.135 352.337C393.548 352.823 397.204 353.797 398.91 356.716C400.129 358.662 400.129 361.095 401.104 363.041C404.272 371.312 419.384 370.096 427.427 369.852C439.127 369.366 450.582 367.42 460.576 362.311C467.888 358.662 474.469 353.797 482.268 350.877C494.699 346.255 508.836 345.282 522.242 345.769C532.235 346.255 542.716 348.931 548.322 356.229C556.121 366.69 553.196 381.53 548.078 392.477C547.834 392.963 548.322 393.45 548.078 393.693C553.196 382.503 556.365 366.447 548.809 355.499C540.278 343.093 520.535 343.579 505.424 344.552C497.624 345.039 489.824 346.498 482.512 349.174C477.15 351.121 472.275 354.04 467.4 356.959C454.482 364.501 441.077 367.906 425.234 368.393C418.653 368.636 408.172 369.366 403.297 364.744C400.616 362.311 400.86 359.149 399.641 356.229C397.691 351.85 392.573 350.877 387.454 350.634C376.486 349.904 365.274 351.607 355.037 354.283C346.262 356.473 337.732 359.878 329.932 363.527C327.982 364.501 323.107 366.203 322.132 367.906C321.401 369.609 322.376 372.529 322.376 374.231C322.62 380.07 322.863 386.152 323.107 391.99C323.595 401.478 324.082 410.966 324.326 420.21C324.326 420.453 324.326 419.723 324.326 419.48Z" fill="#F210A1"/>
</g>
<mask id="homeHeroSVG4" masktype="alpha" maskUnits="userSpaceOnUse" x="355" y="334" width="172" height="72">
<path fill-rule="evenodd" clip-rule="evenodd" d="M355.768 334.091H526.141V405.613H355.768V334.091Z" fill="white"/>
</mask>
<g mask="url(#homeHeroSVG4)">
<path fill-rule="evenodd" clip-rule="evenodd" d="M324.326 409.019C323.595 391.747 322.864 374.718 321.889 357.446C321.889 357.932 321.889 358.175 321.889 358.662C339.925 347.715 365.274 339.687 387.698 341.633C391.354 341.876 395.498 342.606 397.935 345.039C399.641 346.742 399.885 348.931 400.372 350.877C402.322 358.175 410.609 359.149 418.653 359.392C431.571 359.635 443.758 357.446 455.457 352.58C465.694 348.445 474.956 343.336 485.681 339.93C498.599 335.794 513.467 334.091 527.36 335.794C536.622 337.011 544.909 340.66 549.296 347.715C555.634 358.175 552.709 371.799 547.834 382.259C547.59 382.746 548.078 383.232 547.834 383.476C552.953 372.529 555.877 357.689 549.54 346.742C542.716 334.821 526.385 333.362 512.248 334.091C494.455 334.821 479.587 340.417 464.232 347.471C448.876 354.526 432.546 359.392 414.509 357.689C409.391 357.202 403.541 356.229 401.347 352.094C399.885 349.418 400.372 346.255 398.179 343.822C394.766 339.687 386.479 339.93 381.117 339.93C369.905 340.173 358.937 342.119 348.7 345.525C341.144 347.958 333.832 350.877 327.007 354.283C325.057 355.256 322.132 356.229 321.889 357.932C321.401 359.878 322.132 362.554 322.132 364.744C322.376 370.582 322.62 376.421 322.864 382.259C323.351 391.504 323.595 400.748 324.082 409.749C324.326 409.992 324.326 409.506 324.326 409.019Z" fill="#FFBD00"/>
</g>
<mask id="homeHeroSVG5" masktype="alpha" maskUnits="userSpaceOnUse" x="355" y="323" width="172" height="77">
<path fill-rule="evenodd" clip-rule="evenodd" d="M355.768 323.388H526.141V399.775H355.768V323.388Z" fill="white"/>
</mask>
<g mask="url(#homeHeroSVG5)">
<path fill-rule="evenodd" clip-rule="evenodd" d="M324.326 398.559C323.595 381.286 322.864 364.257 321.889 346.985C321.889 347.471 321.889 347.715 321.889 348.201C328.713 344.066 336.513 340.66 344.313 337.984C358.206 333.118 375.024 329.226 390.135 331.415C393.548 331.902 397.204 332.875 398.91 335.794C400.129 337.741 400.129 340.173 401.104 342.119C404.272 350.391 419.14 349.174 427.427 348.931C439.127 348.445 450.339 346.255 460.332 341.39C467.644 337.741 474.225 332.875 482.268 329.956C494.699 325.334 508.836 324.361 522.242 324.847C532.235 325.334 542.716 328.01 548.322 335.308C556.121 345.769 553.196 360.608 548.078 371.555C547.834 372.042 548.322 372.529 548.078 372.772C553.196 361.581 556.365 345.525 548.809 334.578C540.278 322.171 520.535 322.658 505.667 323.631C497.868 324.117 490.068 325.577 482.756 328.253C477.15 330.199 472.275 333.118 467.4 336.038C454.482 343.579 441.077 346.985 425.477 347.471C418.896 347.715 408.416 348.445 403.541 343.822C400.86 341.39 401.104 338.227 399.885 335.308C397.935 330.929 392.816 329.956 387.698 329.713C376.73 328.983 365.518 330.686 355.281 333.362C346.506 335.551 337.975 338.957 330.176 342.606C328.226 343.579 323.351 345.282 322.376 346.985C321.645 348.688 322.62 351.607 322.62 353.31C322.864 359.149 323.107 365.23 323.351 371.069C323.839 380.556 324.326 390.044 324.57 399.288C324.326 399.532 324.326 399.045 324.326 398.559Z" fill="#713EF4"/>
</g>
<path d="M491.052 90.1245L431.421 55.9634V98.3833L491.052 132.544V90.1245Z" fill="#00E4FF"/>
<path d="M478.518 98.5302C478.139 98.5302 478.139 98.5302 477.759 98.5302L453.45 84.4671C453.071 84.087 452.691 83.3268 453.071 82.9467C453.45 82.5666 454.21 82.1866 454.59 82.5666L478.898 96.6298C479.278 97.0098 479.658 97.77 479.278 98.1501C479.278 98.5302 478.898 98.5302 478.518 98.5302Z" fill="white"/>
<path d="M478.518 104.235C478.139 104.235 478.139 104.235 477.759 104.235L442.056 83.71C441.676 83.3299 441.296 82.5698 441.676 82.1897C442.056 81.8096 442.815 81.4295 443.195 81.8096L478.898 102.334C479.278 102.714 479.658 103.474 479.278 103.854C479.278 104.235 478.898 104.235 478.518 104.235Z" fill="white"/>
<path d="M478.518 109.936C478.139 109.936 478.139 109.936 477.759 109.936L442.056 89.4115C441.676 89.0314 441.296 88.2712 441.676 87.8912C442.056 87.5111 442.815 87.131 443.195 87.5111L478.898 108.036C479.278 108.416 479.658 109.176 479.278 109.556C479.278 109.936 478.898 109.936 478.518 109.936Z" fill="white"/>
<path d="M467.504 109.556C467.124 109.556 467.124 109.556 466.744 109.556L442.056 95.1127C441.676 94.7326 441.296 93.9724 441.676 93.5924C442.056 93.2123 442.815 92.8322 443.195 93.2123L467.883 107.655C468.263 108.036 468.643 108.796 468.263 109.176C468.263 109.176 467.883 109.556 467.504 109.556Z" fill="white"/>
<path d="M583.133 347.48L526.441 314.235V371.592L583.133 404.837V347.48Z" fill="#EE3529"/>
<path fill-rule="evenodd" clip-rule="evenodd" d="M548.759 344.696V347.948L554.175 355.897L560.313 364.57L550.925 366.376V354.091L548.759 351.2V370.351L564.285 367.099L548.759 344.696Z" fill="white"/>
<path d="M524.534 431.287C524.534 443.168 514.92 452.77 503.026 452.77C491.131 452.77 481.518 443.168 481.518 431.287C481.518 419.406 491.131 409.804 503.026 409.804C514.92 409.641 524.534 419.406 524.534 431.287Z" fill="#FFBD00"/>
<path d="M533.006 469.696C533.006 475.392 528.444 479.949 522.741 479.949C517.039 479.949 512.476 475.392 512.476 469.696C512.476 463.999 517.039 459.443 522.741 459.443C528.444 459.443 533.006 463.999 533.006 469.696Z" fill="#00E4FF"/>
<path d="M525.185 469.695H520.623L523.556 466.766L522.741 465.952L518.994 469.695H509.38L503.678 475.392V438.448L511.173 430.798L510.358 429.985L503.678 436.657V427.381L511.173 419.894L510.358 419.08L503.678 425.753V420.22H502.374V431.449L495.694 424.777L494.879 425.753L502.374 433.24V443.005L495.694 436.332L494.879 437.146L502.374 444.795V506.477H503.678V477.019L509.869 470.835H516.224L519.808 474.578L520.623 473.764L517.69 470.835H525.185V469.695Z" fill="#5C717A"/>
<path d="M476.141 465.627C476.141 470.672 480.215 474.741 485.266 474.741C490.317 474.741 494.39 470.672 494.39 465.627C494.39 460.582 490.317 456.513 485.266 456.513C480.215 456.513 476.141 460.582 476.141 465.627Z" fill="#DADADA"/>
<path d="M502.374 472.137L496.834 466.603H491.131L487.873 470.021L487.221 469.37L489.828 466.603H482.985V465.627H487.221L484.614 463.023L485.266 462.372L488.687 465.627H497.323L502.374 470.835V472.137Z" fill="#5C717A"/>
<path d="M418.108 412.193C418.108 420.695 424.987 427.566 433.499 427.566C442.01 427.566 448.889 420.695 448.889 412.193C448.889 403.692 442.01 396.821 433.499 396.821C424.987 396.705 418.108 403.692 418.108 412.193Z" fill="#713EF4"/>
<path d="M406.386 446.832C406.386 452.039 410.556 456.204 415.769 456.204C420.982 456.204 425.152 452.039 425.152 446.832C425.152 441.625 420.982 437.46 415.769 437.46C410.556 437.46 406.386 441.625 406.386 446.832Z" fill="#00E4FF"/>
<path d="M415.739 446.003H419.303L417.012 443.704L417.648 443.066L420.576 446.003H428.087L432.543 450.474V421.48L426.687 415.477L427.323 414.839L432.543 420.075V412.795L426.687 406.92L427.323 406.281L432.543 411.518V407.175H433.561V415.988L438.78 410.751L439.417 411.518L433.561 417.393V425.057L438.78 419.82L439.417 420.459L433.561 426.462V474.869H432.543V451.751L427.705 446.898H422.74L419.94 449.835L419.303 449.197L421.594 446.898H415.739V446.003Z" fill="white"/>
<path d="M454.635 437.914C454.635 442.497 450.935 446.193 446.346 446.193C441.758 446.193 438.058 442.497 438.058 437.914C438.058 433.331 441.758 429.635 446.346 429.635C450.935 429.635 454.635 433.331 454.635 437.914Z" fill="#EE3529"/>
<path d="M433.497 444.628L438.561 439.569H443.774L446.753 442.694L447.349 442.099L444.966 439.569H451.221V438.677H447.349L449.732 436.296L449.136 435.701L446.008 438.677H438.114L433.497 443.437V444.628Z" fill="white"/>
<path d="M592.651 282.665C590.667 282.665 589.477 281.079 589.477 279.494C589.477 277.513 591.064 276.324 592.651 276.324C594.635 276.324 595.825 277.909 595.825 279.494C595.825 281.079 594.238 282.665 592.651 282.665ZM592.651 277.909C591.858 277.909 591.064 278.702 591.064 279.494C591.064 280.287 591.858 281.08 592.651 281.08C593.444 281.08 594.238 280.287 594.238 279.494C594.238 278.702 593.444 277.909 592.651 277.909Z" fill="#FFBD00"/>
<path d="M592.651 273.947C592.254 273.947 591.857 273.551 591.857 273.155V262.059C591.857 261.663 592.254 261.267 592.651 261.267C593.047 261.267 593.444 261.663 593.444 262.059V273.155C593.444 273.551 593.047 273.947 592.651 273.947Z" fill="#FFBD00"/>
<path d="M592.651 256.908C592.254 256.908 591.857 256.512 591.857 256.115V250.171C591.857 249.775 592.254 249.379 592.651 249.379C593.047 249.379 593.444 249.775 593.444 250.171V256.115C593.444 256.512 593.047 256.908 592.651 256.908Z" fill="#FFBD00"/>
<path d="M592.651 244.227C592.254 244.227 591.857 243.831 591.857 243.435V237.491C591.857 237.094 592.254 236.698 592.651 236.698C593.048 236.698 593.444 237.094 593.444 237.491V243.435C593.444 243.831 593.048 244.227 592.651 244.227Z" fill="#FFBD00"/>
<path d="M589.477 274.739C589.08 274.739 589.08 274.739 588.684 274.343L583.13 264.833C582.733 264.437 583.13 264.04 583.526 263.644C583.923 263.248 584.32 263.644 584.716 264.04L590.271 273.551C590.667 273.947 590.271 274.343 589.874 274.739C589.477 274.739 589.477 274.739 589.477 274.739Z" fill="#FFBD00"/>
<path d="M580.749 260.078C580.352 260.078 580.352 260.078 579.956 259.681L577.179 254.53C576.782 254.134 577.179 253.737 577.575 253.341C577.972 252.945 578.369 253.341 578.766 253.737L581.543 258.889C581.939 259.285 581.543 259.681 581.146 260.078H580.749Z" fill="#FFBD00"/>
<path d="M574.402 248.982C574.005 248.982 574.005 248.982 573.608 248.586L570.831 243.435C570.434 243.038 570.831 242.642 571.228 242.246C571.625 241.85 572.021 242.246 572.418 242.642L575.195 247.794C575.592 248.19 575.195 248.586 574.798 248.982C574.798 248.982 574.798 248.982 574.402 248.982Z" fill="#FFBD00"/>
<path d="M587.097 277.118H586.701L577.179 271.57C576.783 271.174 576.783 270.777 576.783 270.381C577.179 269.985 577.576 269.985 577.973 269.985L587.494 275.533C587.891 275.929 587.891 276.325 587.891 276.721C587.494 277.118 587.097 277.118 587.097 277.118Z" fill="#FFBD00"/>
<path d="M572.022 268.4H571.625L566.864 265.626C566.468 265.23 566.468 264.834 566.468 264.437C566.864 264.041 567.261 264.041 567.658 264.041L572.815 266.815C573.212 267.211 573.212 267.608 573.212 268.004C572.815 268.4 572.418 268.4 572.022 268.4Z" fill="#FFBD00"/>
<path d="M561.31 262.455H560.913L555.756 259.681C555.359 259.285 555.359 258.889 555.359 258.493C555.756 258.096 556.153 258.096 556.55 258.096L561.707 260.87C562.104 261.267 562.104 261.663 562.104 262.059C562.104 262.059 561.707 262.455 561.31 262.455Z" fill="#FFBD00"/>
<path d="M586.303 280.287H575.195C574.799 280.287 574.402 279.891 574.402 279.495C574.402 279.098 574.799 278.702 575.195 278.702H586.303C586.7 278.702 587.097 279.098 587.097 279.495C587.097 279.891 586.7 280.287 586.303 280.287Z" fill="#FFBD00"/>
<path d="M569.245 280.287H563.294C562.897 280.287 562.5 279.891 562.5 279.495C562.5 279.098 562.897 278.702 563.294 278.702H569.245C569.641 278.702 570.038 279.098 570.038 279.495C570.038 279.891 569.641 280.287 569.245 280.287Z" fill="#FFBD00"/>
<path d="M556.549 280.287H550.598C550.202 280.287 549.805 279.891 549.805 279.495C549.805 279.098 550.202 278.702 550.598 278.702H556.549C556.946 278.702 557.343 279.098 557.343 279.495C557.343 279.891 556.946 280.287 556.549 280.287Z" fill="#FFBD00"/>
<path d="M577.576 289.005C577.179 289.005 577.179 289.005 576.782 288.609C576.385 288.212 576.782 287.816 577.179 287.42L586.7 281.872C587.097 281.476 587.494 281.872 587.89 282.268C588.287 282.665 587.89 283.061 587.494 283.457L577.972 289.005H577.576Z" fill="#FFBD00"/>
<path d="M567.261 294.949C566.864 294.949 566.864 294.949 566.467 294.552C566.07 294.156 566.467 293.76 566.864 293.364L572.021 290.59C572.418 290.194 572.815 290.59 573.211 290.986C573.608 291.382 573.211 291.779 572.815 292.175L567.657 294.949C567.261 294.949 567.261 294.949 567.261 294.949Z" fill="#FFBD00"/>
<path d="M556.153 301.289C555.756 301.289 555.756 301.289 555.359 300.892C554.962 300.496 555.359 300.1 555.756 299.704L560.913 296.93C561.31 296.534 561.707 296.93 562.103 297.326C562.5 297.722 562.103 298.119 561.707 298.515L556.549 301.289C556.549 300.892 556.549 301.289 556.153 301.289Z" fill="#FFBD00"/>
<path d="M583.923 295.345H583.526C583.13 294.949 583.13 294.553 583.13 294.157L588.684 284.646C589.081 284.25 589.477 284.25 589.874 284.25C590.271 284.646 590.271 285.043 590.271 285.439L584.717 294.949C584.32 294.949 584.32 295.345 583.923 295.345Z" fill="#FFBD00"/>
<path d="M577.973 305.649H577.576C577.179 305.252 577.179 304.856 577.179 304.46L579.956 299.308C580.353 298.912 580.75 298.912 581.146 298.912C581.543 299.308 581.543 299.705 581.543 300.101L578.766 305.252C578.369 305.252 577.973 305.649 577.973 305.649Z" fill="#FFBD00"/>
<path d="M571.625 316.347H571.228C570.831 315.951 570.831 315.555 570.831 315.159L573.609 310.007C574.005 309.611 574.402 309.611 574.799 309.611C575.195 310.007 575.195 310.403 575.195 310.8L572.418 315.951C572.022 316.347 572.022 316.347 571.625 316.347Z" fill="#FFBD00"/>
<path d="M592.651 297.327C592.254 297.327 591.857 296.93 591.857 296.534V285.439C591.857 285.042 592.254 284.646 592.651 284.646C593.048 284.646 593.444 285.042 593.444 285.439V296.534C593.444 296.93 593.048 297.327 592.651 297.327Z" fill="#FFBD00"/>
<path d="M592.651 309.611C592.254 309.611 591.857 309.215 591.857 308.819V302.875C591.857 302.478 592.254 302.082 592.651 302.082C593.047 302.082 593.444 302.478 593.444 302.875V308.819C593.444 309.215 593.047 309.611 592.651 309.611Z" fill="#FFBD00"/>
<path d="M592.651 321.895C592.254 321.895 591.857 321.499 591.857 321.102V315.158C591.857 314.762 592.254 314.366 592.651 314.366C593.047 314.366 593.444 314.762 593.444 315.158V321.102C593.444 321.499 593.047 321.895 592.651 321.895Z" fill="#FFBD00"/>
<path d="M600.982 295.346C600.586 295.346 600.586 295.346 600.189 294.949L594.635 285.439C594.238 285.043 594.635 284.646 595.031 284.25C595.428 283.854 595.825 284.25 596.222 284.646L601.776 294.157C602.172 294.553 601.776 294.949 601.379 295.346C601.379 294.949 601.379 295.346 600.982 295.346Z" fill="#FFBD00"/>
<path d="M606.933 305.649C606.536 305.649 606.536 305.649 606.139 305.252L603.362 300.101C602.966 299.705 603.362 299.308 603.759 298.912C604.156 298.516 604.552 298.912 604.949 299.308L607.726 304.46C608.123 304.856 607.726 305.252 607.33 305.649C607.33 305.649 607.33 305.649 606.933 305.649Z" fill="#FFBD00"/>
<path d="M613.281 316.348C612.884 316.348 612.884 316.348 612.487 315.952L609.71 310.8C609.313 310.404 609.71 310.008 610.107 309.611C610.503 309.215 610.9 309.611 611.297 310.008L614.074 315.159C614.471 315.555 614.074 315.952 613.677 316.348C613.677 316.348 613.677 316.348 613.281 316.348Z" fill="#FFBD00"/>
<path d="M607.33 289.005H606.933L597.412 283.458C597.015 283.061 597.015 282.665 597.015 282.269C597.412 281.873 597.808 281.873 598.205 281.873L607.726 287.42C608.123 287.817 608.123 288.213 608.123 288.609C608.123 288.609 607.726 289.005 607.33 289.005Z" fill="#FFBD00"/>
<path d="M617.645 294.95H617.248L612.091 292.176C611.694 291.78 611.694 291.384 611.694 290.987C612.091 290.591 612.487 290.591 612.884 290.591L618.042 293.365C618.438 293.761 618.438 294.157 618.438 294.554C618.438 294.554 618.042 294.95 617.645 294.95Z" fill="#FFBD00"/>
<path d="M628.753 301.29H628.356L623.199 298.12C622.802 297.724 622.802 297.327 622.802 296.931C623.199 296.535 623.595 296.535 623.992 296.535L629.15 299.309C629.546 299.705 629.546 300.101 629.546 300.498C629.15 300.894 629.15 301.29 628.753 301.29Z" fill="#FFBD00"/>
<path d="M609.71 280.287H598.602C598.205 280.287 597.809 279.891 597.809 279.495C597.809 279.098 598.205 278.702 598.602 278.702H609.71C610.107 278.702 610.504 279.098 610.504 279.495C610.504 279.891 610.107 280.287 609.71 280.287Z" fill="#FFBD00"/>
<path d="M621.612 280.287H615.661C615.264 280.287 614.867 279.891 614.867 279.495C614.867 279.098 615.264 278.702 615.661 278.702H621.612C622.008 278.702 622.405 279.098 622.405 279.495C622.405 279.891 622.008 280.287 621.612 280.287Z" fill="#FFBD00"/>
<path d="M634.307 280.287H628.356C627.959 280.287 627.563 279.891 627.563 279.495C627.563 279.098 627.959 278.702 628.356 278.702H634.307C634.704 278.702 635.1 279.098 635.1 279.495C635.1 279.891 634.704 280.287 634.307 280.287Z" fill="#FFBD00"/>
<path d="M597.808 277.117C597.412 277.117 597.412 277.117 597.015 276.721C596.618 276.325 597.015 275.929 597.412 275.532L606.933 269.985C607.33 269.588 607.726 269.985 608.123 270.381C608.52 270.777 608.123 271.173 607.726 271.57L598.205 277.117C598.205 277.117 598.205 277.117 597.808 277.117Z" fill="#FFBD00"/>
<path d="M612.884 268.399C612.487 268.399 612.487 268.399 612.09 268.003C611.694 267.607 612.09 267.211 612.487 266.814L617.644 264.041C618.041 263.644 618.438 264.041 618.835 264.437C619.231 264.833 618.835 265.229 618.438 265.626L613.28 268.399C612.884 268.399 612.884 268.399 612.884 268.399Z" fill="#FFBD00"/>
<path d="M623.595 262.455C623.198 262.455 623.198 262.455 622.801 262.059C622.405 261.663 622.801 261.267 623.198 260.87L628.355 258.096C628.752 257.7 629.149 258.096 629.546 258.493C629.942 258.889 629.546 259.285 629.149 259.682L623.992 262.455C623.992 262.059 623.595 262.455 623.595 262.455Z" fill="#FFBD00"/>
<path d="M595.825 274.739H595.428C594.635 274.343 594.635 273.947 595.031 273.551L600.586 264.04C600.982 263.644 601.379 263.644 601.776 263.644C602.172 264.04 602.172 264.437 602.172 264.833L596.222 274.343C596.222 274.739 595.825 274.739 595.825 274.739Z" fill="#FFBD00"/>
<path d="M604.156 260.077H603.759C603.363 259.681 603.363 259.285 603.363 258.888L606.14 253.737C606.536 253.341 606.933 253.341 607.33 253.341C607.727 253.737 607.727 254.133 607.727 254.529L604.95 259.681C604.95 259.681 604.553 260.077 604.156 260.077Z" fill="#FFBD00"/>
<path d="M610.504 248.982H610.107C609.71 248.586 609.71 248.19 609.71 247.793L612.487 242.642C612.884 242.246 613.281 242.246 613.677 242.246C614.074 242.642 614.074 243.038 614.074 243.434L611.297 248.586C610.9 248.982 610.9 248.982 610.504 248.982Z" fill="#FFBD00"/>
<path d="M365.462 244.211L220.574 330.121C220.574 330.121 264.27 285.604 219.04 273.108C173.811 260.612 153.879 234.058 153.879 234.058L365.462 244.211Z" fill="#713EF4"/>
<path d="M403.932 310.909L258.602 394.91C258.602 394.91 318.58 378.873 306.276 423.929C293.973 468.984 307.045 498.766 307.045 498.766L403.932 310.909Z" fill="#713EF4"/>
<path d="M591.229 158.61C591.229 157.834 592.006 157.834 592.006 157.834L591.229 158.61C356.602 152.398 220.132 330.121 220.132 330.121L239.289 362.847V363.624L258.711 396.24C257.934 396.24 480.131 365.177 591.229 158.61Z" fill="white"/>
<path d="M247.835 378.379C254.827 374.496 254.827 374.496 254.827 374.496L316.203 338.774C320.864 335.668 322.418 329.455 320.087 324.796C316.98 320.136 310.764 318.583 306.103 320.913L244.727 356.635C244.727 356.635 244.727 356.635 237.735 360.518L247.835 378.379Z" fill="#B0C1C9"/>
<path d="M202.774 386.144L201.22 383.038C198.889 379.155 200.443 373.719 204.328 371.39L299.888 316.253C303.772 313.924 309.211 315.477 311.541 319.36L313.095 322.466C315.426 326.349 313.872 331.785 309.988 334.114L214.427 389.251C210.543 391.58 205.105 390.027 202.774 386.144Z" fill="#3B00D0"/>
<path d="M499.115 276.773C480.469 270.56 471.585 246.362 459.155 224.619C446.724 203.651 417.29 199.893 391.652 199.893C446.035 175.043 513.538 156.281 590.453 157.834C581.226 179.875 550.042 234.521 499.115 276.773Z" fill="#EE3529"/>
<path d="M188.789 360.518L118.867 400.899" stroke="#FFBD00" stroke-miterlimit="10" stroke-linecap="round" stroke-linejoin="round"/>
<path d="M219.866 413.324L125.083 468.461" stroke="#3B00D0" stroke-miterlimit="10" stroke-linecap="round" stroke-linejoin="round"/>
<path d="M181.02 389.25L87.0141 443.61" stroke="#F210A1" stroke-miterlimit="10" stroke-linecap="round" stroke-linejoin="round"/>
<path d="M125.083 445.94L85.4603 469.237" stroke="#713EF4" stroke-miterlimit="10" stroke-linecap="round" stroke-linejoin="round"/>
<path d="M223.75 389.25L174.805 417.207" stroke="#00E4FF" stroke-miterlimit="10" stroke-linecap="round" stroke-linejoin="round"/>
<path d="M156.936 428.079L142.952 435.844" stroke="#3B00D0" stroke-miterlimit="10" stroke-linecap="round" stroke-linejoin="round"/>
<path d="M13.9843 525.15L8.5459 539.128L17.8688 534.469L13.9843 525.15Z" fill="#5C717A"/>
<path d="M55.1607 502.63L26.415 544.564L17.0921 523.597L38.0687 510.395L13.2075 519.714L0 510.395L55.1607 502.63Z" fill="#DBE2E4"/>
<path d="M64.4836 367.507L54.3838 392.357L71.4758 383.815L64.4836 367.507Z" fill="#5C717A"/>
<path d="M138.29 326.349L87.0139 400.9L69.9219 363.624L107.214 339.551L62.1528 356.635L39.6223 340.327L138.29 326.349Z" fill="#DBE2E4"/>
<path d="M163.151 523.597L155.382 543.011L169.367 536.022L163.151 523.597Z" fill="#5C717A"/>
<path d="M221.42 490.981L181.02 550L167.813 521.267L197.336 502.629L161.598 515.831L143.729 503.406L221.42 490.981Z" fill="#DBE2E4"/>
<path d="M544.289 57.3609C541.9 57.3609 540.108 55.5711 540.108 53.1847C540.108 50.7983 541.9 49.0085 544.289 49.0085C546.678 49.0085 548.47 50.7983 548.47 53.1847C548.47 55.5711 546.678 57.3609 544.289 57.3609ZM544.289 51.3949C543.095 51.3949 542.199 52.2898 542.199 53.483C542.199 54.6762 543.095 55.5711 544.289 55.5711C545.484 55.5711 546.38 54.6762 546.38 53.483C546.38 52.2898 545.484 51.3949 544.289 51.3949Z" fill="#713EF4"/>
<path d="M544.289 46.6222C543.692 46.6222 543.095 46.0256 543.095 45.429V32.0055C543.095 31.4089 543.692 30.8123 544.289 30.8123C544.886 30.8123 545.484 31.4089 545.484 32.0055V45.429C545.185 46.0256 544.886 46.6222 544.289 46.6222Z" fill="#713EF4"/>
<path d="M544.289 25.7409C543.692 25.7409 543.095 25.1443 543.095 24.5477V17.3886C543.095 16.792 543.692 16.1954 544.289 16.1954C544.886 16.1954 545.484 16.792 545.484 17.3886V24.5477C545.185 25.1443 544.886 25.7409 544.289 25.7409Z" fill="#713EF4"/>
<path d="M544.289 10.2295C543.692 10.2295 543.095 9.63293 543.095 9.03633V1.87715C543.095 1.28055 543.692 0.683945 544.289 0.683945C544.886 0.683945 545.484 1.28055 545.484 1.87715V9.03633C545.185 9.63293 544.886 10.2295 544.289 10.2295Z" fill="#713EF4"/>
<path d="M540.407 47.5167C540.108 47.5167 539.81 47.2184 539.511 46.9201L532.642 35.2864C532.343 34.6898 532.642 34.0932 532.941 33.7949C533.538 33.4966 534.135 33.7949 534.434 34.0932L541.303 45.7269C541.601 46.3235 541.303 46.9201 541.004 47.2184C540.706 47.5167 540.706 47.5167 540.407 47.5167Z" fill="#713EF4"/>
<path d="M529.954 29.6189C529.656 29.6189 529.357 29.3206 529.058 29.0223L525.475 22.758C525.176 22.1614 525.475 21.5648 525.773 21.2665C526.371 20.9682 526.968 21.2665 527.267 21.5648L530.85 27.8291C531.149 28.4257 530.85 29.0223 530.552 29.3206C530.253 29.3206 529.954 29.6189 529.954 29.6189Z" fill="#713EF4"/>
<path d="M522.19 16.1952C521.891 16.1952 521.592 15.8969 521.294 15.5986L517.71 9.33433C517.411 8.73773 517.71 8.14113 518.009 7.84283C518.606 7.54453 519.203 7.84283 519.502 8.14112L523.086 14.4054C523.384 15.002 523.086 15.5986 522.787 15.8969C522.488 16.1952 522.19 16.1952 522.19 16.1952Z" fill="#713EF4"/>
<path d="M537.42 50.5003C537.122 50.5003 537.122 50.5003 536.823 50.5003L525.475 43.6394C524.878 43.3411 524.878 42.7445 525.176 42.1479C525.475 41.5513 526.072 41.5513 526.669 41.8496L538.316 48.4122C538.914 48.7105 538.914 49.3071 538.615 49.9037C538.316 50.202 538.018 50.5003 537.42 50.5003Z" fill="#713EF4"/>
<path d="M519.203 40.0595C518.905 40.0595 518.905 40.0595 518.606 40.0595L512.334 36.4799C511.737 36.1816 511.737 35.585 512.036 34.9884C512.334 34.3918 512.932 34.3918 513.529 34.6901L519.801 38.2697C520.398 38.568 520.398 39.1646 520.099 39.7612C520.099 39.7612 519.801 40.0595 519.203 40.0595Z" fill="#713EF4"/>
<path d="M506.063 32.3033C505.764 32.3033 505.764 32.3033 505.466 32.3033L499.194 28.7237C498.597 28.4254 498.597 27.8288 498.896 27.2322C499.194 26.6356 499.791 26.6356 500.389 26.9339L506.66 30.5135C507.258 30.8118 507.258 31.4084 506.959 32.005C506.66 32.005 506.362 32.3033 506.063 32.3033Z" fill="#713EF4"/>
<path d="M536.525 54.3782H523.086C522.488 54.3782 521.891 53.7816 521.891 53.185C521.891 52.5884 522.488 51.9918 523.086 51.9918H536.525C537.122 51.9918 537.719 52.5884 537.719 53.185C537.719 53.7816 537.122 54.3782 536.525 54.3782Z" fill="#713EF4"/>
<path d="M515.619 54.3782H508.452C507.855 54.3782 507.257 53.7816 507.257 53.185C507.257 52.5884 507.855 51.9918 508.452 51.9918H515.619C516.217 51.9918 516.814 52.5884 516.814 53.185C516.814 53.7816 515.918 54.3782 515.619 54.3782Z" fill="#713EF4"/>
<path d="M500.09 54.3782H492.923C492.325 54.3782 491.728 53.7816 491.728 53.185C491.728 52.5884 492.325 51.9918 492.923 51.9918H500.09C500.687 51.9918 501.285 52.5884 501.285 53.185C501.285 53.7816 500.687 54.3782 500.09 54.3782Z" fill="#713EF4"/>
<path d="M525.773 65.1164C525.475 65.1164 525.176 64.8181 524.877 64.5198C524.579 63.9232 524.877 63.3266 525.176 63.0283L536.823 56.1674C537.42 55.8691 538.018 56.1674 538.316 56.4657C538.615 57.0623 538.316 57.6589 538.018 57.9572L526.37 64.8181C526.37 65.1164 526.072 65.1164 525.773 65.1164Z" fill="#713EF4"/>
<path d="M513.23 72.2761C512.932 72.2761 512.633 71.9778 512.334 71.6795C512.036 71.0829 512.334 70.4863 512.633 70.188L518.904 66.6085C519.502 66.3102 520.099 66.6084 520.398 66.9067C520.696 67.5033 520.398 68.0999 520.099 68.3982L513.827 71.9778C513.529 72.2761 513.23 72.2761 513.23 72.2761Z" fill="#713EF4"/>
<path d="M499.791 80.0322C499.493 80.0322 499.194 79.7339 498.895 79.4356C498.597 78.839 498.895 78.2424 499.194 77.9441L505.465 74.3645C506.063 74.0662 506.66 74.3645 506.959 74.6628C507.257 75.2594 506.959 75.856 506.66 76.1543L500.389 79.7339C500.09 80.0322 499.791 80.0322 499.791 80.0322Z" fill="#713EF4"/>
<path d="M533.538 72.8725C533.239 72.8725 533.239 72.8725 532.941 72.8725C532.344 72.5742 532.344 71.9776 532.642 71.381L539.511 59.7473C539.81 59.1507 540.407 59.1507 541.004 59.449C541.601 59.7473 541.601 60.3439 541.303 60.9405L534.434 72.5742C534.434 72.5742 534.135 72.8725 533.538 72.8725Z" fill="#713EF4"/>
<path d="M526.371 85.699C526.072 85.699 526.072 85.699 525.773 85.699C525.176 85.4007 525.176 84.8041 525.475 84.2075L529.058 77.9432C529.357 77.3466 529.954 77.3466 530.551 77.6449C531.149 77.9432 531.149 78.5398 530.85 79.1364L527.266 85.4007C526.968 85.4007 526.669 85.699 526.371 85.699Z" fill="#713EF4"/>
<path d="M518.606 98.8242C518.307 98.8242 518.307 98.8242 518.008 98.8242C517.411 98.5259 517.411 97.9293 517.71 97.3327L521.293 91.0684C521.592 90.4718 522.189 90.4718 522.787 90.7701C523.384 91.0684 523.384 91.665 523.085 92.2616L519.502 98.5259C519.203 98.8242 518.904 98.8242 518.606 98.8242Z" fill="#713EF4"/>
<path d="M544.289 75.5571C543.692 75.5571 543.095 74.9605 543.095 74.3639V60.9404C543.095 60.3438 543.692 59.7472 544.289 59.7472C544.886 59.7472 545.484 60.3438 545.484 60.9404V74.3639C545.185 75.2588 544.886 75.5571 544.289 75.5571Z" fill="#713EF4"/>
<path d="M544.289 90.4724C543.692 90.4724 543.095 89.8758 543.095 89.2792V82.12C543.095 81.5234 543.692 80.9268 544.289 80.9268C544.886 80.9268 545.484 81.5234 545.484 82.12V89.2792C545.185 89.8758 544.886 90.4724 544.289 90.4724Z" fill="#713EF4"/>
<path d="M544.289 105.685C543.692 105.685 543.095 105.089 543.095 104.492V97.3329C543.095 96.7363 543.692 96.1397 544.289 96.1397C544.886 96.1397 545.484 96.7363 545.484 97.3329V104.492C545.185 105.387 544.886 105.685 544.289 105.685Z" fill="#713EF4"/>
<path d="M555.04 72.8727C554.742 72.8727 554.443 72.5744 554.145 72.2761L547.276 60.6425C546.977 60.0459 547.276 59.4493 547.574 59.151C548.172 58.8527 548.769 59.1509 549.068 59.4492L555.936 71.083C556.235 71.6796 555.936 72.2761 555.638 72.5745C555.339 72.8728 555.04 72.8727 555.04 72.8727Z" fill="#713EF4"/>
<path d="M562.208 85.699C561.909 85.699 561.611 85.4007 561.312 85.1024L557.728 78.8381C557.43 78.2415 557.728 77.6449 558.027 77.3466C558.624 77.0483 559.221 77.3466 559.52 77.6449L563.104 83.9092C563.402 84.5058 563.104 85.1024 562.805 85.4007C562.506 85.4007 562.507 85.699 562.208 85.699Z" fill="#713EF4"/>
<path d="M569.973 98.8244C569.674 98.8244 569.375 98.5261 569.077 98.2278L565.493 91.9634C565.194 91.3668 565.493 90.7702 565.792 90.4719C566.389 90.1736 566.986 90.4719 567.285 90.7702L570.868 97.0346C571.167 97.6312 570.868 98.2278 570.57 98.5261C570.271 98.8244 570.271 98.8244 569.973 98.8244Z" fill="#713EF4"/>
<path d="M562.805 65.1169C562.507 65.1169 562.507 65.1169 562.208 65.1169L550.561 58.256C549.964 57.9577 549.964 57.3611 550.262 56.7645C550.561 56.1679 551.158 56.1679 551.755 56.4662L563.402 63.3271C564 63.6254 564 64.222 563.701 64.8186C563.402 64.8186 563.104 65.1169 562.805 65.1169Z" fill="#713EF4"/>
<path d="M575.348 72.2753C575.049 72.2753 575.049 72.2753 574.751 72.2753L568.479 68.6957C567.882 68.3974 567.882 67.8008 568.181 67.2042C568.479 66.6076 569.077 66.6076 569.674 66.9059L575.945 70.4855C576.543 70.7838 576.543 71.3804 576.244 71.977C576.244 72.2753 575.945 72.2753 575.348 72.2753Z" fill="#713EF4"/>
<path d="M588.787 80.0317C588.488 80.0317 588.488 80.0317 588.19 80.0317L582.217 76.4521C581.62 76.1538 581.62 75.5572 581.918 74.9606C582.217 74.364 582.814 74.364 583.411 74.6623L589.683 78.2419C590.28 78.5402 590.28 79.1368 589.982 79.7334C589.683 80.0317 589.086 80.0317 588.787 80.0317Z" fill="#713EF4"/>
<path d="M565.493 54.3782H552.054C551.457 54.3782 550.859 53.7816 550.859 53.185C550.859 52.5884 551.457 51.9918 552.054 51.9918H565.493C566.09 51.9918 566.687 52.5884 566.687 53.185C566.687 53.7816 566.09 54.3782 565.493 54.3782Z" fill="#713EF4"/>
<path d="M580.425 54.3782H572.959C572.362 54.3782 571.765 53.7816 571.765 53.185C571.765 52.5884 572.362 51.9918 572.959 51.9918H580.127C580.724 51.9918 581.321 52.5884 581.321 53.185C581.321 53.7816 580.724 54.3782 580.425 54.3782Z" fill="#713EF4"/>
<path d="M595.656 54.3782H588.489C587.891 54.3782 587.294 53.7816 587.294 53.185C587.294 52.5884 587.891 51.9918 588.489 51.9918H595.656C596.253 51.9918 596.851 52.5884 596.851 53.185C596.851 53.7816 596.253 54.3782 595.656 54.3782Z" fill="#713EF4"/>
<path d="M551.158 50.5C550.86 50.5 550.561 50.2017 550.262 49.9034C549.964 49.3068 550.262 48.7102 550.561 48.4119L562.208 41.8494C562.805 41.5511 563.403 41.8494 563.701 42.1477C564 42.7443 563.701 43.3409 563.403 43.6392L551.755 50.2018C551.457 50.5001 551.158 50.5 551.158 50.5Z" fill="#713EF4"/>
<path d="M569.077 40.0597C568.778 40.0597 568.479 39.7614 568.181 39.4631C567.882 38.8665 568.181 38.2699 568.479 37.9716L574.751 34.392C575.348 34.0937 575.945 34.392 576.244 34.6903C576.543 35.2869 576.244 35.8835 575.945 36.1818L569.674 39.7614C569.674 40.0597 569.375 40.0597 569.077 40.0597Z" fill="#713EF4"/>
<path d="M582.516 32.3035C582.217 32.3035 581.919 32.0052 581.62 31.7069C581.321 31.1103 581.62 30.5137 581.919 30.2154L588.19 26.6358C588.787 26.3375 589.385 26.6358 589.683 26.9341C589.982 27.5307 589.683 28.1273 589.385 28.4256L583.113 32.0052C583.113 32.3035 582.815 32.3035 582.516 32.3035Z" fill="#713EF4"/>
<path d="M548.172 47.5168C547.873 47.5168 547.873 47.5168 547.574 47.5168C546.977 47.2185 546.977 46.6219 547.276 46.0253L554.144 34.3916C554.443 33.795 555.04 33.795 555.638 34.0933C556.235 34.3916 556.235 34.9882 555.936 35.5848L549.067 47.2185C548.769 47.5168 548.47 47.5168 548.172 47.5168Z" fill="#713EF4"/>
<path d="M558.624 29.6191C558.325 29.6191 558.325 29.6191 558.027 29.6191C557.43 29.3208 557.43 28.7242 557.728 28.1276L561.312 21.8633C561.611 21.2667 562.208 21.2667 562.805 21.565C563.402 21.8633 563.402 22.4599 563.104 23.0565L559.52 29.3208C559.52 29.3208 558.923 29.6191 558.624 29.6191Z" fill="#713EF4"/>
<path d="M566.389 16.1957C566.09 16.1957 566.09 16.1957 565.791 16.1957C565.194 15.8974 565.194 15.3008 565.493 14.7042L569.077 8.43989C569.375 7.84329 569.972 7.84329 570.57 8.14159C571.167 8.43989 571.167 9.03649 570.868 9.63309L567.285 15.8974C566.986 15.8974 566.687 16.1957 566.389 16.1957Z" fill="#713EF4"/>
<path d="M105.527 167.841C102.971 167.841 101.437 165.798 101.437 163.755C101.437 161.202 103.482 159.67 105.527 159.67C108.084 159.67 109.617 161.713 109.617 163.755C109.617 165.798 107.572 167.841 105.527 167.841ZM105.527 161.713C104.505 161.713 103.482 162.734 103.482 163.755C103.482 164.777 104.505 165.798 105.527 165.798C106.55 165.798 107.572 164.777 107.572 163.755C107.572 162.734 106.55 161.713 105.527 161.713Z" fill="#EE3529"/>
<path d="M105.527 156.607C105.016 156.607 104.505 156.096 104.505 155.585V141.286C104.505 140.775 105.016 140.265 105.527 140.265C106.039 140.265 106.55 140.775 106.55 141.286V155.585C106.55 156.096 106.039 156.607 105.527 156.607Z" fill="#EE3529"/>
<path d="M105.527 134.646C105.016 134.646 104.505 134.136 104.505 133.625V125.964C104.505 125.454 105.016 124.943 105.527 124.943C106.039 124.943 106.55 125.454 106.55 125.964V133.625C106.55 134.136 106.039 134.646 105.527 134.646Z" fill="#EE3529"/>
<path d="M105.527 118.304C105.016 118.304 104.505 117.793 104.505 117.282V109.622C104.505 109.111 105.016 108.601 105.527 108.601C106.038 108.601 106.55 109.111 106.55 109.622V117.282C106.55 117.793 106.038 118.304 105.527 118.304Z" fill="#EE3529"/>
<path d="M101.437 157.627C100.926 157.627 100.926 157.627 100.414 157.117L93.2565 144.86C92.7452 144.349 93.2565 143.839 93.7678 143.328C94.2791 142.817 94.7903 143.328 95.3016 143.839L102.46 156.095C102.971 156.606 102.46 157.117 101.948 157.627C101.437 157.627 101.437 157.627 101.437 157.627Z" fill="#EE3529"/>
<path d="M90.1886 138.732C89.6774 138.732 89.6774 138.732 89.1661 138.221L85.5871 131.582C85.0758 131.071 85.5871 130.561 86.0984 130.05C86.6097 129.539 87.1209 130.05 87.6322 130.561L91.2112 137.2C91.7225 137.71 91.2112 138.221 90.6999 138.732H90.1886Z" fill="#EE3529"/>
<path d="M82.0083 124.432C81.497 124.432 81.497 124.432 80.9857 123.922L77.4067 117.283C76.8954 116.772 77.4067 116.261 77.918 115.751C78.4292 115.24 78.9405 115.751 79.4518 116.261L83.0308 122.9C83.5421 123.411 83.0308 123.922 82.5195 124.432C82.5195 124.432 82.5195 124.432 82.0083 124.432Z" fill="#EE3529"/>
<path d="M98.3696 160.692H97.8583L85.5875 153.542C85.0763 153.031 85.0763 152.521 85.0763 152.01C85.5875 151.499 86.0988 151.499 86.6101 151.499L98.8808 158.649C99.3921 159.16 99.3921 159.67 99.3921 160.181C98.8809 160.692 98.3696 160.692 98.3696 160.692Z" fill="#EE3529"/>
<path d="M78.9407 149.457H78.4294L72.294 145.882C71.7827 145.371 71.7827 144.861 71.7827 144.35C72.294 143.839 72.8053 143.839 73.3166 143.839L79.9632 147.414C80.4745 147.925 80.4745 148.435 80.4745 148.946C79.9632 149.457 79.4519 149.457 78.9407 149.457Z" fill="#EE3529"/>
<path d="M65.136 141.796H64.6248L57.9781 138.221C57.4668 137.71 57.4668 137.199 57.4668 136.689C57.9781 136.178 58.4894 136.178 59.0007 136.178L65.6473 139.753C66.1586 140.264 66.1586 140.774 66.1586 141.285C66.1586 141.285 65.6473 141.796 65.136 141.796Z" fill="#EE3529"/>
<path d="M97.3468 164.777H83.0308C82.5195 164.777 82.0083 164.266 82.0083 163.756C82.0083 163.245 82.5195 162.734 83.0308 162.734H97.3468C97.858 162.734 98.3693 163.245 98.3693 163.756C98.3693 164.266 97.858 164.777 97.3468 164.777Z" fill="#EE3529"/>
<path d="M75.3616 164.777H67.6924C67.1811 164.777 66.6699 164.266 66.6699 163.756C66.6699 163.245 67.1811 162.734 67.6924 162.734H75.3616C75.8729 162.734 76.3842 163.245 76.3842 163.756C76.3842 164.266 75.8729 164.777 75.3616 164.777Z" fill="#EE3529"/>
<path d="M59.0005 164.777H51.3313C50.82 164.777 50.3087 164.266 50.3087 163.756C50.3087 163.245 50.82 162.734 51.3313 162.734H59.0005C59.5118 162.734 60.0231 163.245 60.0231 163.756C60.0231 164.266 59.5118 164.777 59.0005 164.777Z" fill="#EE3529"/>
<path d="M86.0985 176.012C85.5872 176.012 85.5872 176.012 85.0759 175.502C84.5646 174.991 85.0759 174.48 85.5872 173.969L97.8579 166.82C98.3692 166.309 98.8805 166.82 99.3917 167.33C99.903 167.841 99.3917 168.352 98.8804 168.863L86.6097 176.012C86.6097 176.012 86.0985 176.012 86.0985 176.012Z" fill="#EE3529"/>
<path d="M72.805 183.672C72.2937 183.672 72.2937 183.672 71.7824 183.162C71.2712 182.651 71.7824 182.14 72.2937 181.63L78.9404 178.055C79.4517 177.544 79.963 178.055 80.4742 178.565C80.9855 179.076 80.4742 179.587 79.963 180.098L73.3163 183.672C72.805 183.672 72.805 183.672 72.805 183.672Z" fill="#EE3529"/>
<path d="M58.4894 191.843C57.9782 191.843 57.9782 191.843 57.4669 191.333C56.9556 190.822 57.4669 190.311 57.9782 189.801L64.6248 186.226C65.1361 185.715 65.6474 186.226 66.1587 186.736C66.67 187.247 66.1587 187.758 65.6474 188.268L59.0007 191.843C59.0007 191.333 59.0007 191.843 58.4894 191.843Z" fill="#EE3529"/>
<path d="M94.2791 184.184H93.7678C93.2566 183.673 93.2565 183.162 93.2565 182.651L100.414 170.395C100.926 169.884 101.437 169.884 101.948 169.884C102.46 170.395 102.46 170.905 102.46 171.416L95.3017 183.673C94.7904 183.673 94.7904 184.184 94.2791 184.184Z" fill="#EE3529"/>
<path d="M86.6098 197.462H86.0986C85.5873 196.951 85.5873 196.44 85.5873 195.93L89.1662 189.291C89.6775 188.78 90.1888 188.78 90.7001 188.78C91.2114 189.291 91.2114 189.801 91.2114 190.312L87.6324 196.951C87.1211 196.951 86.6098 197.462 86.6098 197.462Z" fill="#EE3529"/>
<path d="M78.4293 211.251H77.918C77.4067 210.74 77.4067 210.23 77.4067 209.719L80.9857 203.08C81.497 202.569 82.0083 202.569 82.5195 202.569C83.0308 203.08 83.0308 203.59 83.0308 204.101L79.4519 210.74C78.9406 211.251 78.9406 211.251 78.4293 211.251Z" fill="#EE3529"/>
<path d="M105.527 186.737C105.016 186.737 104.505 186.226 104.505 185.715V171.416C104.505 170.905 105.016 170.394 105.527 170.394C106.038 170.394 106.55 170.905 106.55 171.416V185.715C106.55 186.226 106.038 186.737 105.527 186.737Z" fill="#EE3529"/>
<path d="M105.527 202.568C105.016 202.568 104.505 202.058 104.505 201.547V193.887C104.505 193.376 105.016 192.865 105.527 192.865C106.039 192.865 106.55 193.376 106.55 193.887V201.547C106.55 202.058 106.039 202.568 105.527 202.568Z" fill="#EE3529"/>
<path d="M105.527 218.4C105.016 218.4 104.505 217.889 104.505 217.379V209.718C104.505 209.208 105.016 208.697 105.527 208.697C106.039 208.697 106.55 209.208 106.55 209.718V217.379C106.55 217.889 106.039 218.4 105.527 218.4Z" fill="#EE3529"/>
<path d="M116.264 184.184C115.753 184.184 115.753 184.184 115.242 183.673L108.084 171.416C107.572 170.906 108.084 170.395 108.595 169.884C109.106 169.374 109.618 169.884 110.129 170.395L117.287 182.652C117.798 183.162 117.287 183.673 116.776 184.184C116.776 183.673 116.776 184.184 116.264 184.184Z" fill="#EE3529"/>
<path d="M123.933 197.461C123.422 197.461 123.422 197.461 122.91 196.951L119.331 190.312C118.82 189.801 119.331 189.29 119.843 188.78C120.354 188.269 120.865 188.78 121.377 189.29L124.956 195.929C125.467 196.44 124.956 196.951 124.444 197.461C124.444 197.461 124.444 197.461 123.933 197.461Z" fill="#EE3529"/>
<path d="M132.113 211.25C131.602 211.25 131.602 211.25 131.091 210.74L127.512 204.101C127.001 203.59 127.512 203.079 128.023 202.569C128.535 202.058 129.046 202.569 129.557 203.079L133.136 209.718C133.647 210.229 133.136 210.74 132.625 211.25C132.625 211.25 132.625 211.25 132.113 211.25Z" fill="#EE3529"/>
<path d="M124.445 176.013H123.934L111.663 168.863C111.151 168.352 111.151 167.842 111.151 167.331C111.663 166.82 112.174 166.82 112.685 166.82L124.956 173.97C125.467 174.481 125.467 174.991 125.467 175.502C125.467 175.502 124.956 176.013 124.445 176.013Z" fill="#EE3529"/>
<path d="M137.738 183.673H137.227L130.58 180.099C130.069 179.588 130.069 179.077 130.069 178.566C130.58 178.056 131.092 178.056 131.603 178.056L138.25 181.631C138.761 182.141 138.761 182.652 138.761 183.163C138.761 183.163 138.25 183.673 137.738 183.673Z" fill="#EE3529"/>
<path d="M152.054 191.845H151.543L144.896 187.759C144.385 187.248 144.385 186.738 144.385 186.227C144.896 185.716 145.407 185.716 145.919 185.716L152.565 189.291C153.077 189.802 153.077 190.313 153.077 190.823C152.565 191.334 152.565 191.845 152.054 191.845Z" fill="#EE3529"/>
<path d="M127.513 164.777H113.197C112.685 164.777 112.174 164.266 112.174 163.756C112.174 163.245 112.685 162.734 113.197 162.734H127.513C128.024 162.734 128.535 163.245 128.535 163.756C128.535 164.266 128.024 164.777 127.513 164.777Z" fill="#EE3529"/>
<path d="M142.85 164.777H135.181C134.67 164.777 134.159 164.266 134.159 163.756C134.159 163.245 134.67 162.734 135.181 162.734H142.85C143.362 162.734 143.873 163.245 143.873 163.756C143.873 164.266 143.362 164.777 142.85 164.777Z" fill="#EE3529"/>
<path d="M159.212 164.777H151.543C151.031 164.777 150.52 164.266 150.52 163.756C150.52 163.245 151.031 162.734 151.543 162.734H159.212C159.723 162.734 160.234 163.245 160.234 163.756C160.234 164.266 159.723 164.777 159.212 164.777Z" fill="#EE3529"/>
<path d="M112.174 160.692C111.663 160.692 111.663 160.692 111.151 160.181C110.64 159.67 111.151 159.16 111.663 158.649L123.933 151.499C124.445 150.989 124.956 151.499 125.467 152.01C125.979 152.521 125.467 153.031 124.956 153.542L112.685 160.692C112.685 160.692 112.685 160.692 112.174 160.692Z" fill="#EE3529"/>
<path d="M131.602 149.456C131.091 149.456 131.091 149.456 130.58 148.946C130.069 148.435 130.58 147.924 131.091 147.413L137.738 143.839C138.249 143.328 138.76 143.839 139.272 144.349C139.783 144.86 139.272 145.371 138.76 145.881L132.114 149.456C131.602 149.456 131.602 149.456 131.602 149.456Z" fill="#EE3529"/>
<path d="M145.407 141.796C144.896 141.796 144.896 141.796 144.384 141.285C143.873 140.774 144.384 140.264 144.896 139.753L151.542 136.178C152.053 135.667 152.565 136.178 153.076 136.689C153.587 137.199 153.076 137.71 152.565 138.221L145.918 141.796C145.918 141.285 145.407 141.796 145.407 141.796Z" fill="#EE3529"/>
<path d="M109.618 157.627H109.106C108.084 157.117 108.084 156.606 108.595 156.095L115.753 143.838C116.264 143.328 116.776 143.328 117.287 143.328C117.798 143.838 117.798 144.349 117.798 144.86L110.129 157.117C110.129 157.627 109.618 157.627 109.618 157.627Z" fill="#EE3529"/>
<path d="M120.354 138.731H119.843C119.332 138.22 119.332 137.71 119.332 137.199L122.911 130.56C123.422 130.049 123.933 130.049 124.445 130.049C124.956 130.56 124.956 131.071 124.956 131.581L121.377 138.22C121.377 138.22 120.866 138.731 120.354 138.731Z" fill="#EE3529"/>
<path d="M128.535 124.432H128.024C127.513 123.922 127.513 123.411 127.513 122.9L131.092 116.261C131.603 115.75 132.114 115.75 132.625 115.75C133.137 116.261 133.137 116.772 133.137 117.283L129.558 123.922C129.046 124.432 129.046 124.432 128.535 124.432Z" fill="#EE3529"/>
<path d="M207.109 144.012L269.533 180.277V96.2588L207.109 60.1831V144.012Z" fill="#3B00D0"/>
<path d="M252.267 170.309V112.873L269.533 122.841V180.182L252.267 170.309Z" fill="#713EF4"/>
<path d="M214.224 86.3853L238.416 100.151V123.6L214.224 109.835V86.3853Z" fill="#713EF4"/>
<path d="M222.478 139.454L246.575 153.315V176.764L222.478 162.903V139.454Z" fill="white"/>
<path d="M207.204 60.1831L269.533 96.2588V107.936L207.204 71.8602V60.1831Z" fill="#FFBD00"/>
<path d="M252.267 98.0623L269.533 107.936V122.841L252.267 112.872V98.0623Z" fill="#B0C1C9"/>
<path d="M258.433 122.936L275.7 132.809V147.619L258.433 137.746V122.936Z" fill="#00E4FF"/>
<path d="M198.76 98.0623L222.857 111.828V135.277L198.76 121.512V98.0623Z" fill="#00E4FF"/>
<path d="M230.826 107.177C230.731 107.177 230.731 107.177 230.637 107.177L224.375 103.569C224.28 103.474 224.185 103.284 224.28 103.189C224.375 103.094 224.565 102.999 224.66 103.094L230.921 106.702C231.016 106.797 231.111 106.987 231.016 107.082C231.111 107.082 230.921 107.177 230.826 107.177Z" fill="white"/>
<path d="M230.826 108.601C230.731 108.601 230.731 108.601 230.637 108.601L221.529 103.284C221.339 103.189 221.339 102.999 221.434 102.904C221.529 102.809 221.719 102.715 221.814 102.809L230.921 108.126C231.111 108.221 231.111 108.411 231.016 108.506C231.111 108.601 230.921 108.601 230.826 108.601Z" fill="white"/>
<path d="M230.826 110.025C230.731 110.025 230.731 110.025 230.636 110.025L221.529 104.708C221.434 104.613 221.339 104.423 221.434 104.328C221.529 104.234 221.719 104.139 221.814 104.234L230.921 109.55C231.016 109.645 231.111 109.835 231.016 109.93C231.111 110.025 230.921 110.025 230.826 110.025Z" fill="white"/>
<path d="M228.075 109.93C227.98 109.93 227.98 109.93 227.885 109.93L221.529 106.227C221.434 106.132 221.339 105.942 221.434 105.847C221.529 105.752 221.719 105.658 221.814 105.752L228.17 109.455C228.265 109.55 228.36 109.74 228.265 109.835C228.265 109.835 228.17 109.93 228.075 109.93Z" fill="white"/>
<path d="M210.429 117.714L201.796 108.98V117.619L219.062 128.062V119.328L210.429 117.714Z" fill="white"/>
<path d="M219.062 119.328L201.796 108.98L210.145 119.423L219.062 119.328Z" fill="#B0C1C9"/>
<path d="M234.431 118.569L218.303 109.36V93.5056L234.431 102.714V118.569ZM218.778 108.98L233.767 117.524V103.094L218.778 94.5499V108.98Z" fill="white"/>
<path d="M269.723 136.005L267.161 134.518V135.942C267.161 136.227 266.877 136.417 266.592 136.227L264.884 135.183V136.512C264.884 136.796 265.169 137.271 265.454 137.366L267.92 138.79L269.533 141.353L269.343 139.55L269.723 139.739C270.007 139.929 270.292 139.739 270.292 139.455V137.04C270.292 136.227 269.99 136.163 269.723 136.005Z" fill="#5C717A"/>
<path d="M266.592 135.277V133.853V132.524C266.592 132.239 266.308 131.765 266.023 131.67L261.849 129.296C261.564 129.107 261.28 129.296 261.28 129.581V132.334C261.28 132.619 261.564 133.094 261.849 133.189L262.418 133.569L262.133 135.182L263.746 134.423L264.126 134.708L265.833 135.752C266.477 136.163 266.592 135.562 266.592 135.277Z" fill="white"/>
<path d="M431.281 235.694L435.967 237.739C437.816 238.645 438.695 239.767 438.904 240.215C439.709 241.784 438.541 242.987 437.856 243.392L427.769 243.091L421.032 242.383C420.548 242.224 420.215 241.611 419.881 240.998L419.881 240.998L419.362 239.318L419.961 237.503L422.909 233.442L425.488 227.248L432.075 228.409L431.281 235.694Z" fill="#3B00D0"/>
<path d="M445.543 186.077C446.107 182.741 442.269 178.89 438.734 178.23C435.198 177.569 430.428 180.279 430.014 183.161L422.874 231.921C422.425 233.283 423.093 234.509 424.395 235.44L426.663 236.69C428.114 237.167 429.231 237.032 430.014 236.283L430.797 235.535C431.58 234.786 431.73 234.332 432.029 233.425L445.543 186.077Z" fill="#B0C1C9"/>
<path fill-rule="evenodd" clip-rule="evenodd" d="M440.698 190.699C445.281 189.265 446.809 184.487 445.281 180.664C443.753 176.842 434.165 177.888 430.091 179.799L402.975 188.997C401.946 188.913 400.856 188.776 399.703 188.58C387.386 186.439 384.235 185.106 383.323 182.11C369.249 200.523 387.7 205.622 398.685 205.869C401.026 205.64 403.129 205.255 405.011 204.769C405.878 204.68 406.579 204.552 407.045 204.388L440.698 190.699Z" fill="#B0C1C9"/>
<path d="M419.774 128.133L421.402 126.042L422.332 123.487V122.79H422.565L423.03 121.396L426.518 119.305L426.751 119.537L426.286 120.699L424.89 121.628L424.658 121.86L425.588 121.396L427.681 120.699L431.17 117.679V118.608L431.403 119.073L431.17 122.325L430.937 123.487L426.286 127.204L423.262 128.83L420.472 132.082L417.448 130.456L419.774 128.133Z" fill="#FBCDA6"/>
<path d="M404.424 147.415L386.283 133.708C384.887 132.547 384.422 130.456 385.585 129.062C386.748 127.668 388.841 127.204 390.237 128.365L404.889 139.516L418.843 127.901C419.076 127.436 419.541 127.204 420.239 127.204C422.332 127.204 423.495 129.294 422.797 130.921L407.68 146.718C406.052 148.111 405.587 148.111 404.424 147.415Z" fill="#F210A1"/>
<path d="M395.819 123.487L410.936 124.881L412.099 119.77L414.425 117.911L412.564 113.265L412.331 104.67L397.447 103.276L395.819 123.487Z" fill="#FBCDA6"/>
<path d="M396.091 119.489L402.81 120.073L401.862 130.95L395.143 130.366L396.091 119.489Z" fill="#FBCDA6"/>
<path d="M394.888 127.668L403.028 129.527V126.971L394.888 125.345V127.668Z" fill="#F210A1"/>
<path d="M398.377 190.391C376.515 186.21 379.771 181.796 382.329 175.059L387.213 161.585L385.585 139.516C385.12 136.264 384.422 129.759 386.05 127.901C389.074 123.719 391.399 125.81 394.888 125.81L406.052 128.598C407.447 128.83 408.61 129.527 409.54 130.224C416.052 135.567 414.657 146.021 413.262 153.687L410.936 165.302L415.355 182.725C415.355 183.19 415.355 183.654 415.355 184.119C414.192 186.21 409.075 192.482 398.377 190.391Z" fill="#F210A1"/>
<path d="M402.796 108.851C402.563 112.104 399.772 114.427 396.516 113.962C393.26 113.73 390.934 110.942 391.4 107.69C391.632 104.437 394.423 102.114 397.679 102.579C400.703 103.044 403.028 105.831 402.796 108.851Z" fill="#091018"/>
<path d="M414.657 190.391L415.122 193.411L416.518 194.805L416.983 195.734L417.215 196.199L417.448 196.664L417.681 197.128L417.913 198.057L417.215 202.471L416.518 202.239L415.82 200.845L416.052 199.219V198.754L415.587 199.916L415.355 202.239L415.587 207.35H414.657L413.494 206.188L411.401 204.33L410.703 201.774V196.664V192.947L409.308 188.533L414.192 186.674L414.657 190.391Z" fill="#FBCDA6"/>
<path d="M403.959 165.767V165.303L405.354 139.284C405.354 136.264 408.377 133.941 411.401 134.87C413.494 135.567 414.89 137.426 413.959 139.981L411.866 165.303C412.564 169.252 413.029 172.736 414.192 179.473C414.89 183.423 415.355 186.675 415.82 189.695C415.82 189.927 415.82 190.16 415.82 190.392C415.82 191.553 415.82 192.25 414.424 192.715C412.796 193.18 410.238 194.109 410.006 192.947C408.843 186.907 405.354 175.524 403.959 165.767Z" fill="#F210A1"/>
<path d="M405.121 139.748L402.098 165.767L409.075 189.462L403.959 165.302L405.121 139.748Z" fill="#3B00D0"/>
<path d="M382.562 119.77C382.562 118.376 383.259 116.982 384.422 116.285C385.352 114.427 386.981 113.033 388.841 112.104C389.539 110.245 390.004 108.154 390.469 106.064C391.399 100.488 396.284 91.6605 411.168 97.7005C413.727 98.6297 415.355 100.953 415.122 103.74C414.89 106.528 412.564 108.851 409.773 109.084C409.54 111.871 406.982 113.962 404.191 114.194C403.959 115.588 403.028 116.517 402.098 117.447C402.098 117.679 402.098 117.911 402.098 118.376C402.098 118.608 401.865 118.841 401.865 119.305C403.028 119.77 403.959 120.931 403.959 122.325C403.959 124.184 402.563 125.577 400.702 125.577C399.772 125.577 399.074 125.113 398.377 124.648C397.912 125.577 396.749 126.042 395.586 126.042C394.656 126.042 393.958 125.81 393.493 125.113C392.795 126.274 391.399 127.204 390.004 127.204C387.911 127.204 386.283 125.577 386.05 123.719C383.957 123.487 382.562 121.861 382.562 119.77Z" fill="#FFBD00"/>
<path d="M308.332 207.011L311.719 208.703L315.106 212.089L315.67 213.781L315.106 214.345L313.977 213.217L312.848 212.089H312.283L313.977 213.781L315.67 216.038C316.234 216.602 316.799 217.166 317.363 217.166C317.363 217.166 317.363 217.731 316.799 217.731H313.412L311.154 217.166C310.026 216.602 309.461 216.602 308.332 216.038L305.51 213.217L303.817 209.268L301.559 205.318L306.074 202.497L308.332 207.011Z" fill="#FBCDA6"/>
<path d="M287.448 184.443L302.123 208.139L307.768 205.318L296.479 181.058L316.234 157.926C318.492 154.541 317.928 150.027 313.977 148.335C310.59 146.642 306.639 147.77 304.946 150.591L286.883 179.929C286.319 181.058 286.319 182.75 287.448 184.443Z" fill="#FFBD00"/>
<path d="M404.852 284.305L404.288 283.74C403.159 282.612 402.594 283.176 400.901 282.612L395.256 282.048L393.563 273.585L386.225 274.713L385.661 282.612L383.968 288.254C383.968 288.818 383.968 290.511 383.968 290.511L385.097 292.203C385.661 292.767 386.225 293.332 386.79 293.332L394.128 291.639L404.852 288.254C405.416 288.254 405.416 287.126 405.416 286.561V285.997C405.981 285.433 405.416 284.869 404.852 284.305Z" fill="#5C717A"/>
<path d="M392.434 217.73C391.87 213.78 387.919 210.96 383.968 211.524C380.017 212.088 377.759 216.037 378.323 219.422L385.097 280.92C385.097 282.612 386.225 283.74 387.919 284.305L390.741 284.869C392.434 284.869 393.563 284.305 394.128 283.176L394.692 282.048C395.257 280.92 395.257 280.355 395.257 279.227L392.434 217.73Z" fill="#3B00D0"/>
<path d="M328.088 227.321C312.848 224.5 307.768 220.551 306.639 216.601V225.629C306.639 232.399 298.737 241.426 328.088 247.068C342.763 249.889 349.536 240.862 351.23 238.605C351.23 238.041 351.23 237.477 351.23 236.348L350.101 220.551C347.279 223.372 340.505 229.578 328.088 227.321Z" fill="#3B00D0"/>
<path d="M391.305 216.037C392.999 220.551 391.305 226.193 386.225 227.885L339.376 246.504C334.861 248.196 329.781 246.504 328.088 241.99C326.394 237.477 328.088 232.399 332.603 230.142L380.016 211.524C384.532 209.267 389.612 211.524 391.305 216.037Z" fill="#3B00D0"/>
<path d="M322.472 154.536L332.066 154.418L331.88 139.187L322.285 139.304L322.472 154.536Z" fill="#FBCDA6"/>
<path d="M324.137 144.949L339.376 143.257L343.328 135.358L346.15 131.973L342.199 125.767L338.812 113.919L317.928 116.74L324.137 144.949Z" fill="#FBCDA6"/>
<path d="M325.83 115.611C326.394 120.125 330.91 123.51 335.425 122.946C339.941 122.382 343.328 117.868 342.763 113.354C342.199 108.841 337.683 105.456 333.168 106.02C328.652 106.584 325.265 111.098 325.83 115.611Z" fill="#414042"/>
<path d="M316.799 117.304C317.363 121.818 321.879 125.203 326.394 124.638C330.91 124.074 334.296 119.561 333.732 115.047C333.168 110.534 328.652 107.148 324.137 107.713C319.621 108.841 316.234 112.79 316.799 117.304Z" fill="#414042"/>
<path d="M316.234 126.331C316.799 129.716 319.621 131.973 323.008 131.973C326.394 131.409 328.652 128.588 328.652 125.203C328.088 121.817 325.265 119.561 321.879 119.561C317.928 119.561 315.67 122.946 316.234 126.331Z" fill="#414042"/>
<path d="M339.376 121.817L339.941 127.459H338.812L337.683 124.638L335.425 125.767V128.588V130.845C335.425 131.973 335.425 133.101 334.861 134.23C333.168 138.179 331.474 137.615 328.652 138.179C326.394 138.743 325.83 137.615 325.83 135.358L323.572 128.024L328.652 120.125L334.296 117.868L339.941 119.561L339.376 121.817Z" fill="#414042"/>
<path d="M320.75 121.817L328.088 126.895L328.652 134.23C329.216 136.486 329.216 137.615 326.959 137.615C321.879 137.615 320.185 137.615 319.057 133.101V130.844L318.492 129.716L317.928 121.817H320.75Z" fill="#414042"/>
<path d="M321.879 148.334L333.168 150.591V147.77L332.603 147.206L322.443 144.949H321.879V148.334Z" fill="#FFBD00"/>
<path d="M327.523 231.271C298.737 225.629 307.768 216.602 306.639 210.96L307.203 186.7L304.381 155.105C303.817 143.821 316.235 146.078 321.879 146.078L337.683 151.72C337.683 151.72 338.248 151.72 338.248 152.284C342.763 155.105 343.328 155.105 345.021 156.233C352.923 163.003 350.101 180.493 348.408 190.649V196.855L350.101 221.68C350.101 222.244 350.101 222.808 350.101 223.936C348.972 225.629 341.635 234.092 327.523 231.271Z" fill="#FFBD00"/>
<path d="M321.879 252.71L367.599 227.321V185.571L321.879 210.96V252.71Z" fill="#5C717A"/>
<path d="M323.572 251.018L369.292 225.629V183.315L323.008 208.703L323.572 251.018Z" fill="#00E4FF"/>
<path d="M350.101 226.757V230.707L352.923 231.271L354.052 234.092L353.488 236.349V234.656L352.923 234.092L353.488 238.041L345.586 240.862L342.763 235.784L343.328 232.963L342.199 227.886L350.101 226.757Z" fill="#FBCDA6"/>
<path d="M333.732 194.598L336.555 165.824L335.426 195.726L336.555 201.933L335.426 202.497L333.732 194.598Z" fill="#EE3529"/>
<path opacity="0.5" d="M345.021 239.733L344.457 240.298L343.892 239.733L344.457 239.169L345.021 239.733Z" fill="#231F20"/>
<path d="M341.634 231.271L339.941 229.578L335.426 202.497L336.554 201.933L341.634 230.142H342.763L343.328 232.963L342.763 235.784L344.457 239.169L343.892 239.734L341.634 235.784V231.271Z" fill="#EE3529"/>
<path d="M335.426 196.291V195.727L337.119 163.568C337.119 159.619 341.07 156.798 344.457 157.926C347.279 158.49 348.972 161.311 348.408 164.132L345.586 195.727C346.15 197.984 347.279 204.19 348.408 212.653C348.972 217.73 349.537 222.244 350.101 225.629V226.193C350.101 227.322 350.101 228.45 348.408 229.014C346.714 229.578 342.763 230.707 341.07 229.578C340.506 222.808 337.119 208.703 335.426 196.291Z" fill="#FFBD00"/>
<defs>
<linearGradient id="paint0_linear" x1="472.156" y1="659.006" x2="372.751" y2="10.6213" gradientUnits="userSpaceOnUse">
<stop stop-color="#B0C1C9"/>
<stop offset="0.729167" stop-color="#B0C1C9" stop-opacity="0"/>
</linearGradient>
<linearGradient id="paint1_linear" x1="169.495" y1="306.156" x2="576.726" y2="213.061" gradientUnits="userSpaceOnUse">
<stop stop-color="#EE3529"/>
<stop offset="1" stop-color="#3B00D0"/>
</linearGradient>
</defs>
</svg>
